<svg width="72" height="72" viewBox="0 0 72 72" fill="none" xmlns="http://www.w3.org/2000/svg">
<circle cx="36" cy="36" r="36" fill="#FFDE40"/>
<path d="M43.128 47H28.344V44.472C30.1573 42.936 31.7253 41.5813 33.048 40.408C34.392 39.2133 35.4907 38.1147 36.344 37.112C37.2187 36.1093 37.8693 35.16 38.296 34.264C38.7227 33.3467 38.936 32.3973 38.936 31.416C38.936 30.1147 38.584 29.0907 37.88 28.344C37.176 27.576 36.12 27.192 34.712 27.192C33.496 27.192 32.4187 27.448 31.48 27.96C30.5413 28.472 29.6987 29.1013 28.952 29.848V26.904C29.2293 26.6053 29.5707 26.3067 29.976 26.008C30.3813 25.7093 30.8507 25.4533 31.384 25.24C31.9387 25.0053 32.5573 24.824 33.24 24.696C33.9227 24.5467 34.6907 24.472 35.544 24.472C36.7173 24.472 37.7627 24.632 38.68 24.952C39.5973 25.272 40.3653 25.72 40.984 26.296C41.624 26.872 42.104 27.5653 42.424 28.376C42.7653 29.1867 42.936 30.0827 42.936 31.064C42.936 32.344 42.7013 33.5387 42.232 34.648C41.7627 35.736 41.08 36.8027 40.184 37.848C39.3093 38.8933 38.2427 39.9493 36.984 41.016C35.7467 42.0613 34.36 43.16 32.824 44.312H43.128V47Z" fill="black"/>
</svg>
