<?xml version="1.0" encoding="UTF-8"?>
<svg xmlns="http://www.w3.org/2000/svg" xmlns:xlink="http://www.w3.org/1999/xlink" viewBox="0 0 47 47" width="47px" height="47px">
<g id="surface108744769">
<path style=" stroke:none;fill-rule:nonzero;fill:rgb(100%,87.058824%,25.098041%);fill-opacity:1;" d="M 23.5 42.300781 C 13.117188 42.300781 4.699219 33.882812 4.699219 23.5 C 4.699219 13.117188 13.117188 4.699219 23.5 4.699219 C 33.882812 4.699219 42.300781 13.117188 42.300781 23.5 C 42.300781 33.882812 33.882812 42.300781 23.5 42.300781 Z M 23.5 42.300781 "/>
<path style=" stroke:none;fill-rule:nonzero;fill:rgb(0%,0%,0%);fill-opacity:1;" d="M 23.5 4.40625 C 12.925781 4.40625 4.40625 12.925781 4.40625 23.5 C 4.40625 34.074219 12.925781 42.59375 23.5 42.59375 C 34.074219 42.59375 42.59375 34.074219 42.59375 23.5 C 42.59375 21.445312 42.320312 19.398438 41.585938 17.488281 L 39.199219 19.828125 C 39.488281 21.003906 39.65625 22.179688 39.65625 23.5 C 39.65625 32.460938 32.460938 39.65625 23.5 39.65625 C 14.539062 39.65625 7.34375 32.460938 7.34375 23.5 C 7.34375 14.539062 14.539062 7.34375 23.5 7.34375 C 27.90625 7.34375 31.863281 9.097656 34.652344 11.886719 L 36.71875 9.824219 C 33.339844 6.441406 28.640625 4.40625 23.5 4.40625 Z M 40.070312 10.695312 L 23.5 27.265625 L 17.210938 20.976562 L 15.101562 23.085938 L 22.445312 30.429688 L 23.5 31.441406 L 24.554688 30.429688 L 42.179688 12.804688 Z M 40.070312 10.695312 "/>
</g>
</svg>
