<svg xmlns:inkscape="http://www.inkscape.org/namespaces/inkscape" xmlns:sodipodi="http://sodipodi.sourceforge.net/DTD/sodipodi-0.dtd" xmlns="http://www.w3.org/2000/svg" xmlns:svg="http://www.w3.org/2000/svg" version="1.1" width="474.15039" height="97.024399" sodipodi:docname="fafc7e92704d72cccfd79fc5b3dfed6e.cdr" style=""><rect id="backgroundrect" width="100%" height="100%" x="0" y="0" fill="none" stroke="none"/>
  <defs id="defs13"/>
  <sodipodi:namedview id="namedview11" pagecolor="#ffffff" bordercolor="#666666" borderopacity="1.0" inkscape:pageshadow="2" inkscape:pageopacity="0.0" inkscape:pagecheckerboard="0"/>
  
<g class="currentLayer" style=""><title>Layer 1</title><g id="Layer1000">
    <path d="M25.100200378417966,52.64929140624997 L10.587800378417967,85.24499140625 H3.7841796540760697e-7 l15.944,-34.8609 C8.447200378417975,46.578691406250016 3.4542003784179656,39.68369140624998 3.4542003784179656,26.94859140624999 c0,-17.8419 11.2969,-26.7636 24.7437,-26.7636 h13.6774 v85.06 H32.71640037841797 V52.64529140625001 H25.100200378417966 zm7.6188,-44.7396 h-4.883 c-7.3775,0 -14.5165,4.8804 -14.5165,19.0349 c0,13.6854 6.5438,18.0859 14.5165,18.0859 h4.8763000000000005 V7.9136914062499955 z" style="fill:#ff0000;fill-rule:evenodd" id="path2"/>
    <path d="m219.87270037841796,55.268391406249975 c0,-18.799 7.261,-30.8116 21.2976,-30.8116 c5.3508000000000004,0 8.4471,1.4249 11.0622,3.0896 l-1.3082,8.8051 c-2.4985,-2.1406 -6.0693,-4.1633000000000004 -9.876,-4.1633000000000004 c-6.6604,0 -11.418800000000001,7.4982 -11.418800000000001,22.6031 c0,14.988199999999999 3.5668,23.5547 11.0649,23.5547 c4.5184999999999995,0 7.97,-1.7841 10.1133,-3.6847000000000003 l2.1419,6.9030000000000005 c-3.2116,2.7344 -7.0156,4.5171 -12.4924,4.5171 c-12.849,0 -20.5845,-10.3505 -20.5845,-30.813 zm-27.1241,0.11930000000000002 v29.8613 h-9.2769 v-59.9665 h9.2795 v27.7234 l14.3932,-27.7234 h9.4015 l-14.8744,28.1992 l17.0137,31.7633 H208.57460037841798 L192.75120037841796,55.38639140625003 zm-43.6566,-5.5948 h15.3434 c0,-10.2245 -1.6647000000000003,-17.7213 -7.0156,-17.7213 c-5.7114,0 -7.7354,7.0156 -8.3265,17.7213 zm10.2312,36.2818 c-12.3705,0 -19.9866,-9.872 -19.9866,-28.3118 c0,-19.2722 5.3508000000000004,-33.3087 18.0792,-33.3087 c9.994,0 16.5378,7.4941 16.5378,27.8386 v5.1122 l-24.9809,-0.0010000000000000002 c0,13.5607 3.8053,20.7024 11.1829,20.7024 c5.2355,0 9.3948,-2.3792 11.7793,-4.044 l2.1406,7.1362 c-3.8067,2.9771 -8.805,4.8791 -14.751,4.8791 zm-39.5001,-53.294 h-10.3478 v1.0669 c0,12.6158 -0.5911000000000001,31.0516 -5.5881,43.7799 h15.9359 zm13.9187,64.2437 h-8.3265 v-11.7794 h-25.6967 v11.7794 h-8.3279 v-19.3928 h3.6874000000000002 c5.4729,-12.7284 6.068,-31.2902 6.068,-47.2274 v-5.1217 h27.8413 v52.3491 h4.7544 zm-47.6993,-71.7419 v59.9625 h-9.1656 v-26.8869 h-13.798 v26.8869 h-9.2782 v-59.9625 h9.2782 v25.4635 h13.798 v-25.4635 z" style="fill:#000000;fill-rule:evenodd" id="path4"/>
    <path d="m302.30620037841794,4.885891406249982 v80.3217 h-5.9591 v-80.3217 h-16.8041 v-4.8859 h39.6834 v4.8859 zm31.1039,76.9809 v0 c2.7835,0 5.1439,-1.1456 7.0919,-3.4506 c1.9416000000000002,-2.3049 3.4718,-5.0852 4.5844000000000005,-8.3407 v-16.5644 h-6.4355 c-5.0031,0 -8.6988,1.1893 -11.0826,3.5678 c-2.3828,2.386 -3.571,6.2042 -3.571,11.4471 c0,4.2882 0.8504,7.5853 2.5554,9.8902 c1.7104,2.305 3.9983,3.458 6.8574,3.458 zm13.345,3.3408 v0 c-0.23650000000000002,-0.7929 -0.49550000000000005,-1.8063 -0.7725,-3.0392 c-0.3379000000000001,-1.6710000000000003 -0.5563,-3.3632 -0.6554000000000001,-5.0672 c-1.428,2.8645 -3.2182,5.1258 -5.3634,6.7924 c-2.1441,1.6699000000000002 -4.7272,2.5042999999999997 -7.7451,2.5042999999999997 c-4.0526,0 -7.3497,-1.5271 -9.8955,-4.5823 c-2.5404999999999998,-3.0616 -3.8107,-7.3348 -3.8107,-12.8122 c0,-6.4396 1.7071,-11.3 5.1236,-14.5971 c3.4175,-3.2982 8.3834,-4.9478 14.8976,-4.9478 h6.5527 v-7.5074 c0,-4.6089 -0.8344,-7.9444 -2.5032,-10.0117 c-1.6646,-2.0663 -4.172,-3.0979 -7.5075,-3.0979 c-5.0319,-0.024500000000000004 -9.7527,2.4265 -12.631,6.5527 l-1.5495,-5.3602 c1.1914,-1.5910000000000002 3.0009,-3.0008 5.4209,-4.2295 c2.4244,-1.233 5.3464,-1.85 8.7596,-1.85 c5.0075,0 8.8384,1.4099 11.5036,4.2327 c2.6577,2.8197 3.9887,7.207 3.9887,13.165 v32.7727 c0,2.0663 0.12150000000000001,4.1517 0.35810000000000003,6.2553 c0.23970000000000002,2.1036 0.5562,3.7159 0.9548000000000001,4.8274 zm22.2869,0 v0 h-5.6021 v-60.0617 h5.6021 v28.2438 l20.1374,-28.2438 h5.4816 l-19.7804,27.8878 l21.2116,32.1739 h-6.1967 l-20.8535,-31.1018 zm49.4521,-3.6925 v0 c1.9086,0 3.5976,-0.31650000000000006 5.0661,-0.9548000000000001 c1.4684,-0.6394000000000001 2.7206,-1.3875000000000002 3.7521,-2.2655 c1.2116,-0.8877000000000002 2.2580999999999998,-1.9788999999999999 3.0989,-3.2193 l1.7913000000000001,4.6515 c-0.9036000000000001,1.3033000000000001 -2.0417,2.4339 -3.3408,3.3365 c-1.1093,0.8738000000000001 -2.5596,1.6485 -4.3467,2.3242000000000003 c-1.7882,0.6788000000000002 -3.8363,1.0102 -6.1381,1.0102 c-6.0401,0 -10.705400000000001,-2.7206 -14.0025,-8.1575 c-3.2971,-5.4454 -4.9489,-13.0914 -4.9489,-22.9454 c0,-9.9275 1.6337000000000002,-17.6342 4.8903,-23.1191 c3.2523,-5.4806 7.9816,-8.2214 14.1783,-8.2214 c3.1021,0 5.7193000000000005,0.5382 7.8708,1.6081 c2.1409000000000002,1.072 3.8918,2.4062 5.2387,3.9919000000000002 l-1.5483,5.9601 c-1.363,-1.8404 -3.0147,-3.4506 -4.8871,-4.7666 c-1.9085,-1.3545 -4.1261,-2.0269 -6.6741,-2.0269 c-4.6036,0 -8.003,2.3039 -10.1875,6.9139 c-2.1846,4.6089 -3.279,11.1615 -3.279,19.66 c0,8.2641 1.072,14.6995 3.2204,19.3105 c2.1398,4.6036 5.5616,6.9096 10.2461,6.9096 zm50.2961,-38.1361 v0 c-0.029800000000000004,-2.7483 0.1322,-5.4955 0.47750000000000004,-8.2214 h-0.36340000000000006 c-0.3858000000000001,1.3214000000000001 -0.8632000000000001,2.6151 -1.4291,3.8704 c-0.5573,1.234 -1.1519,2.5244999999999997 -1.7838,3.8736 l-19.5535,42.306 h-4.7645 v-60.0617 h5.2462 v41.7092 c0.010600000000000002,2.8271 -0.15030000000000002,5.65 -0.4817,8.4591 h0.3602 c0.3964000000000001,-1.347 0.8738000000000001,-2.6769000000000003 1.428,-3.9909 c0.5552,-1.3107 1.1562000000000001,-2.6428000000000003 1.7881,-3.9908 l19.546,-42.1866 h4.8902 v60.0617 h-5.3676 v-41.8286 z" style="fill:#000000;fill-rule:evenodd" id="path6"/>
  </g></g></svg>