<svg width="131" height="45" viewBox="0 0 131 45" fill="none" xmlns="http://www.w3.org/2000/svg">
<path d="M9.70033 12.6982H8.145C5.32086 12.6982 3.84739 14.1293 3.84739 16.2553C3.84739 18.6676 4.87063 19.7715 6.99897 21.2025L8.75895 22.3882L3.7246 29.9112H0L4.50226 23.2059C1.88276 21.3661 0.450229 19.5671 0.450229 16.5006C0.450229 12.6574 3.11066 10.0815 8.145 10.0815H13.1794V29.9112H9.74126V12.6982H9.70033Z" fill="black"/>
<path d="M27.3824 15.48V29.8309H23.9852V23.8616H19.442V29.8309H16.0039V15.48H19.442V21.1631H23.9852V15.48H27.3824Z" fill="black"/>
<path d="M41.1751 15.479H31.2701V16.7056C31.2701 20.2218 31.0246 24.7601 29.8376 27.1315H28.7734V33.1008H31.925V29.83H39.5379V33.1008H42.6895V27.1724H41.1751V15.479ZM37.778 27.1724H32.9892C33.9306 25.0054 34.1762 21.0804 34.1762 18.6272V18.2184H37.778V27.1724Z" fill="black"/>
<path d="M55.2547 22.0622C55.2547 17.0741 53.0445 15.1934 49.6474 15.1934C45.5135 15.1934 43.5488 18.3416 43.5488 22.7164C43.5488 27.7045 46.0046 30.1167 50.3432 30.1167C52.5124 30.1167 54.1087 29.5443 55.1319 28.8493V26.069C54.0678 26.7641 52.3078 27.4183 50.6297 27.4183C48.133 27.4183 47.1916 26.2326 47.0688 23.8612H55.2547V22.0622V22.0622ZM51.7757 21.3671H47.0278C47.1097 19.0775 47.9283 17.8918 49.5655 17.8918C51.2436 17.8918 51.7757 19.282 51.7757 21.0809V21.3671V21.3671Z" fill="black"/>
<path d="M60.944 22.7986V29.8309H57.5469V15.48H60.944V22.1035L65.7328 15.48H69.1709L64.3821 22.1035L69.8258 29.8309H65.9784L60.944 22.7986Z" fill="black"/>
<path d="M69.6211 22.6755C69.6211 18.3007 71.8722 15.1934 76.2108 15.1934C77.8889 15.1934 79.1577 15.4796 79.8535 15.8884V18.7913C79.1577 18.3825 77.8889 17.8918 76.5791 17.8918C74.3689 17.8918 73.141 19.4864 73.141 22.5937C73.141 25.5784 74.1234 27.4591 76.5791 27.4591C78.0117 27.4591 79.0349 27.0912 79.8944 26.4779V29.2581C79.0758 29.8714 77.9707 30.1576 76.3745 30.1576C71.8313 30.1167 69.6211 27.4591 69.6211 22.6755Z" fill="black"/>
<path d="M101.015 10V29.8297H97.5765V12.6576H91.3961V29.8297H87.958V10H101.015Z" fill="black"/>
<path d="M107.195 17.3604C108.096 15.9703 109.405 15.2344 111.043 15.2344C114.235 15.2344 116.486 17.892 116.486 22.6756C116.486 27.5002 114.194 30.1577 110.879 30.1577C109.405 30.1577 108.178 29.4627 107.318 28.1952V34.001H103.921V15.5206H107.072L107.195 17.3604ZM112.925 22.6347C112.925 19.323 112.025 17.8511 110.142 17.8511C108.219 17.8511 107.236 19.323 107.236 22.6347C107.236 25.9465 108.137 27.4184 109.938 27.4184C111.943 27.4593 112.925 25.9874 112.925 22.6347Z" fill="black"/>
<path d="M130.852 22.6346C130.852 27.4591 128.233 30.1167 124.508 30.1167C120.784 30.1167 118.164 27.4591 118.164 22.6755C118.164 17.8509 120.784 15.1934 124.508 15.1934C128.233 15.1934 130.852 17.8509 130.852 22.6346ZM127.332 22.6346C127.332 19.3228 126.391 17.8509 124.508 17.8509C122.625 17.8509 121.684 19.3228 121.684 22.6346C121.684 25.9464 122.625 27.4183 124.508 27.4183C126.391 27.4183 127.332 25.9872 127.332 22.6346Z" fill="black"/>
</svg>
