<svg width="75" height="75" xmlns="http://www.w3.org/2000/svg">
 <g>
  <title>background</title>
  <rect x="-1" y="-1" width="582" height="402" id="canvas_background" fill="none"/>
 </g>

 <g>
  <title>Layer 1</title>
  <g id="svg_56" stroke="null">
   <g id="svg_54" transform="matrix(0.9141431634441416,0,0,0.9823248635189223,-9.82485329032337,25.736917847663804) " stroke="null">
    <title stroke="null">background</title>
    <rect fill="none" id="svg_52" height="77" width="77" y="-26.52526" x="13.26963" stroke="null"/>
   </g>
   <g id="svg_55" transform="matrix(0.9141431634441416,0,0,0.9823248635189223,-9.82485329032337,25.736917847663804) " stroke="null">
    <title stroke="null">Layer 1</title>
    <g id="svg_44" stroke="null">
     <g id="svg_45" stroke="null">
      <g id="svg_46" stroke="null">
       <path id="svg_51" d="m73.89529,4.91157l-18.75493,0l1.62971,-23.92832c0.1518,-2.22679 -3.36663,-3.13255 -4.71004,-1.20525l-24.42638,35.04359c-0.99069,1.42119 0.2258,3.21877 2.18245,3.21877l18.75508,0l-1.62986,23.92832c-0.1518,2.22692 3.36678,3.13229 4.71004,1.20525l24.42638,-35.04346c0.99053,-1.42145 -0.22595,-3.2189 -2.18245,-3.2189zm-21.29783,28.47708l1.18266,-17.36182c0.08341,-1.22571 -1.07363,-2.25838 -2.52774,-2.25838l-17.01058,0l16.87183,-24.20517l-1.18252,17.36194c-0.0834,1.22572 1.07364,2.25839 2.52775,2.25839l17.01042,0l-16.87182,24.20504z" stroke="null"/>
       <path id="svg_50" d="m28.94779,30.03401l-4.43663,3.74291c-0.98871,0.83412 -0.98871,2.18649 0,3.02061c0.98857,0.83412 2.59174,0.83425 3.58045,0l4.43663,-3.74291c0.98871,-0.83412 0.98871,-2.18649 0,-3.02061c-0.98857,-0.83425 -2.59174,-0.83425 -3.58045,0z" stroke="null"/>
       <path id="svg_49" d="m28.94779,-5.11064c0.98856,0.83412 2.59173,0.83424 3.58045,0c0.98871,-0.83412 0.98871,-2.18649 0,-3.02061l-4.43663,-3.74291c-0.98856,-0.83412 -2.59173,-0.83412 -3.58045,0c-0.98871,0.83411 -0.98871,2.18649 0,3.0206l4.43663,3.74292z" stroke="null"/>
       <path id="svg_48" d="m74.76345,30.03401c-0.98856,-0.83412 -2.59174,-0.83412 -3.58045,0c-0.98871,0.83412 -0.98871,2.18649 0,3.02061l4.43662,3.74291c0.98857,0.83412 2.59174,0.83425 3.58045,0c0.98872,-0.83412 0.98872,-2.18649 0,-3.02061l-4.43662,-3.74291z" stroke="null"/>
       <path id="svg_47" d="m74.76345,-5.11064l4.43662,-3.74292c0.98872,-0.83411 0.98872,-2.18649 0,-3.0206c-0.98856,-0.83412 -2.59173,-0.83412 -3.58045,0l-4.43662,3.74291c-0.98871,0.83412 -0.98871,2.18649 0,3.02061c0.98841,0.83399 2.59173,0.83412 3.58045,0z" stroke="null"/>
      </g>
     </g>
    </g>
    <g id="svg_43" stroke="null"/>
    <g id="svg_42" stroke="null"/>
    <g id="svg_41" stroke="null"/>
    <g id="svg_40" stroke="null"/>
    <g id="svg_39" stroke="null"/>
    <g id="svg_38" stroke="null"/>
    <g id="svg_37" stroke="null"/>
    <g id="svg_36" stroke="null"/>
    <g id="svg_35" stroke="null"/>
    <g id="svg_34" stroke="null"/>
    <g id="svg_33" stroke="null"/>
    <g id="svg_32" stroke="null"/>
    <g id="svg_31" stroke="null"/>
    <g id="svg_30" stroke="null"/>
    <g id="svg_29" stroke="null"/>
   </g>
  </g>
 </g>
</svg>