<svg width="75" height="75" xmlns="http://www.w3.org/2000/svg" fill="none">

 <g>
  <title>Layer 1</title>
  <path id="svg_2" fill="black" d="m37.5,6.25c-6.1807,0 -12.2225,1.83278 -17.3616,5.2666c-5.139,3.4338 -9.1444,8.3144 -11.50962,14.0245c-2.36524,5.7102 -2.98409,11.9936 -1.77831,18.0555c1.20579,6.0619 4.18203,11.6301 8.55243,16.0005c4.3704,4.3704 9.9386,7.3467 16.0005,8.5524c6.0619,1.2058 12.3453,0.587 18.0555,-1.7783c5.7102,-2.3652 10.5907,-6.3706 14.0245,-11.5096c3.4338,-5.1391 5.2666,-11.1809 5.2666,-17.3616c-0.0091,-8.2852 -3.3044,-16.2285 -9.1629,-22.087c-5.8586,-5.85858 -13.8019,-9.1539 -22.0871,-9.163zm0,56.25c-4.9445,0 -9.778,-1.4662 -13.8892,-4.2133c-4.1113,-2.747 -7.3156,-6.6515 -9.2078,-11.2196c-1.8922,-4.5682 -2.3872,-9.5948 -1.4226,-14.4444c0.9646,-4.8495 3.3456,-9.3041 6.8419,-12.8004c3.4964,-3.4963 7.9509,-5.8773 12.8005,-6.8419c4.8495,-0.9647 9.8761,-0.4696 14.4443,1.4226c4.5682,1.8922 8.4726,5.0965 11.2197,9.2077c2.747,4.1113 4.2132,8.9448 4.2132,13.8893c-0.0083,6.6279 -2.6448,12.9819 -7.3315,17.6685c-4.6866,4.6867 -11.0406,7.3232 -17.6685,7.3315zm0,-43.75c-0.8288,0 -1.6236,0.3292 -2.2097,0.9153c-0.586,0.586 -0.9153,1.3809 -0.9153,2.2097l0,14.8406l-4.3187,8.0563c-0.3912,0.731 -0.476,1.5874 -0.2357,2.381c0.2403,0.7935 0.7859,1.459 1.5169,1.8502c0.731,0.3912 1.5875,0.476 2.381,0.2357c0.7935,-0.2403 1.4591,-0.7859 1.8503,-1.5169l4.6875,-8.7469c0.2417,-0.4541 0.3683,-0.9606 0.3687,-1.475l0,-15.625c0,-0.8288 -0.3292,-1.6237 -0.9153,-2.2097c-0.586,-0.5861 -1.3809,-0.9153 -2.2097,-0.9153z"/>
 </g>
</svg>