<svg width="75" height="75" xmlns="http://www.w3.org/2000/svg" fill="none">

 <g>
  <title>Layer 1</title>
  <path id="svg_2" fill="black" d="m32.6875,18.75l1.6875,-1.8437l0,11.2187c0,0.8288 0.3292,1.6237 0.9153,2.2098c0.586,0.586 1.3809,0.9152 2.2097,0.9152c0.8288,0 1.6237,-0.3292 2.2097,-0.9152c0.5861,-0.5861 0.9153,-1.381 0.9153,-2.2098l0,-11.2187l1.6875,1.7187c0.2837,0.3204 0.6301,0.5791 1.0178,0.7601c0.3878,0.1811 0.8086,0.2805 1.2363,0.2922c0.4278,0.0117 0.8534,-0.0645 1.2505,-0.224c0.397,-0.1595 0.7571,-0.3989 1.0579,-0.7033c0.2929,-0.2905 0.5254,-0.6361 0.684,-1.0169c0.1587,-0.3808 0.2404,-0.7893 0.2404,-1.2018c0,-0.4125 -0.0817,-0.821 -0.2404,-1.2018c-0.1586,-0.3808 -0.3911,-0.7264 -0.684,-1.017l-7.1562,-7.15621c-0.2972,-0.2845 -0.6477,-0.50752 -1.0313,-0.65625c-0.7608,-0.31255 -1.6142,-0.31255 -2.375,0c-0.3836,0.14873 -0.7341,0.37175 -1.0313,0.65625l-7.1562,7.03121c-0.605,0.6051 -0.9449,1.4257 -0.9449,2.2813c0,0.8556 0.3399,1.6762 0.9449,2.2812c0.605,0.6051 1.4256,0.945 2.2812,0.945c0.8557,0 1.6763,-0.3399 2.2813,-0.945zm4.8125,18.75c-1.8542,0 -3.6668,0.5499 -5.2085,1.58c-1.5417,1.0302 -2.7433,2.4943 -3.4529,4.2074c-0.7095,1.713 -0.8952,3.598 -0.5335,5.4166c0.3618,1.8186 1.2547,3.4891 2.5658,4.8002c1.3111,1.3111 2.9816,2.204 4.8001,2.5657c1.8186,0.3617 3.7036,0.1761 5.4167,-0.5335c1.713,-0.7096 3.1772,-1.9112 4.2073,-3.4529c1.0302,-1.5417 1.58,-3.3543 1.58,-5.2085c0,-2.4864 -0.9877,-4.8709 -2.7459,-6.6291c-1.7581,-1.7581 -4.1427,-2.7459 -6.6291,-2.7459zm0,12.5c-0.6181,0 -1.2223,-0.1832 -1.7362,-0.5266c-0.5139,-0.3434 -0.9144,-0.8315 -1.1509,-1.4025c-0.2365,-0.571 -0.2984,-1.1993 -0.1779,-1.8055c0.1206,-0.6062 0.4183,-1.163 0.8553,-1.6001c0.437,-0.437 0.9939,-0.7346 1.6,-0.8552c0.6062,-0.1206 1.2346,-0.0587 1.8056,0.1778c0.571,0.2365 1.0591,0.6371 1.4024,1.151c0.3434,0.5139 0.5267,1.1181 0.5267,1.7361c0,0.8288 -0.3292,1.6237 -0.9153,2.2098c-0.586,0.586 -1.3809,0.9152 -2.2097,0.9152zm-21.875,-3.125c0,0.6181 0.1833,1.2223 0.5267,1.7362c0.3433,0.5139 0.8314,0.9144 1.4024,1.151c0.571,0.2365 1.1994,0.2984 1.8056,0.1778c0.6061,-0.1206 1.163,-0.4182 1.6,-0.8552c0.437,-0.4371 0.7347,-0.9939 0.8553,-1.6001c0.1205,-0.6062 0.0586,-1.2345 -0.1779,-1.8055c-0.2365,-0.5711 -0.637,-1.0591 -1.1509,-1.4025c-0.5139,-0.3434 -1.1181,-0.5267 -1.7362,-0.5267c-0.8288,0 -1.6237,0.3293 -2.2097,0.9153c-0.5861,0.5861 -0.9153,1.3809 -0.9153,2.2097zm43.75,0c0,-0.618 -0.1833,-1.2222 -0.5267,-1.7361c-0.3433,-0.5139 -0.8314,-0.9145 -1.4024,-1.151c-0.571,-0.2365 -1.1994,-0.2984 -1.8056,-0.1778c-0.6062,0.1206 -1.163,0.4182 -1.6,0.8552c-0.4371,0.4371 -0.7347,0.9939 -0.8553,1.6001c-0.1205,0.6062 -0.0586,1.2345 0.1779,1.8055c0.2365,0.571 0.637,1.0591 1.1509,1.4025c0.5139,0.3434 1.1181,0.5266 1.7362,0.5266c0.8288,0 1.6237,-0.3292 2.2097,-0.9152c0.5861,-0.5861 0.9153,-1.381 0.9153,-2.2098zm3.125,-21.875l-12.5,0c-0.8288,0 -1.6237,0.3293 -2.2097,0.9153c-0.5861,0.5861 -0.9153,1.3809 -0.9153,2.2097c0,0.8288 0.3292,1.6237 0.9153,2.2098c0.586,0.586 1.3809,0.9152 2.2097,0.9152l12.5,0c0.8288,0 1.6237,0.3293 2.2097,0.9153c0.5861,0.5861 0.9153,1.3809 0.9153,2.2097l0,25c0,0.8288 -0.3292,1.6237 -0.9153,2.2098c-0.586,0.586 -1.3809,0.9152 -2.2097,0.9152l-50,0c-0.8288,0 -1.6237,-0.3292 -2.2097,-0.9152c-0.58606,-0.5861 -0.9153,-1.381 -0.9153,-2.2098l0,-25c0,-0.8288 0.32924,-1.6236 0.9153,-2.2097c0.586,-0.586 1.3809,-0.9153 2.2097,-0.9153l12.5,0c0.8288,0 1.6237,-0.3292 2.2097,-0.9152c0.5861,-0.5861 0.9153,-1.381 0.9153,-2.2098c0,-0.8288 -0.3292,-1.6236 -0.9153,-2.2097c-0.586,-0.586 -1.3809,-0.9153 -2.2097,-0.9153l-12.5,0c-2.4864,0 -4.87097,0.9878 -6.62913,2.7459c-1.75815,1.7582 -2.74587,4.1427 -2.74587,6.6291l0,25c0,2.4865 0.98772,4.871 2.74587,6.6292c1.75816,1.7581 4.14273,2.7458 6.62913,2.7458l50,0c2.4864,0 4.871,-0.9877 6.6291,-2.7458c1.7582,-1.7582 2.7459,-4.1427 2.7459,-6.6292l0,-25c0,-2.4864 -0.9877,-4.8709 -2.7459,-6.6291c-1.7581,-1.7581 -4.1427,-2.7459 -6.6291,-2.7459z"/>
 </g>
</svg>