<svg width="75" height="75" xmlns="http://www.w3.org/2000/svg" fill="none">

 <g>
  <title>Layer 1</title>
  <path id="svg_2" fill="black" d="m49.375,7l-25,0c-2.4864,0 -4.871,0.98772 -6.6291,2.74587c-1.7582,1.75813 -2.7459,4.14273 -2.7459,6.62913l0,43.75c0,2.4864 0.9877,4.871 2.7459,6.6291c1.7581,1.7582 4.1427,2.7459 6.6291,2.7459l25,0c2.4864,0 4.871,-0.9877 6.6291,-2.7459c1.7582,-1.7581 2.7459,-4.1427 2.7459,-6.6291l0,-43.75c0,-2.4864 -0.9877,-4.871 -2.7459,-6.62913c-1.7581,-1.75815 -4.1427,-2.74587 -6.6291,-2.74587zm3.125,53.125c0,0.8288 -0.3292,1.6237 -0.9153,2.2097c-0.586,0.5861 -1.3809,0.9153 -2.2097,0.9153l-25,0c-0.8288,0 -1.6237,-0.3292 -2.2097,-0.9153c-0.5861,-0.586 -0.9153,-1.3809 -0.9153,-2.2097l0,-3.125l31.25,0l0,3.125zm0,-9.375l-31.25,0l0,-34.375c0,-0.8288 0.3292,-1.6237 0.9153,-2.2097c0.586,-0.5861 1.3809,-0.9153 2.2097,-0.9153l25,0c0.8288,0 1.6237,0.3292 2.2097,0.9153c0.5861,0.586 0.9153,1.3809 0.9153,2.2097l0,34.375z"/>
 </g>
</svg>